
<svg width="1000" height="1000" viewBox="0 0 1000 1000" xmlns="http://www.w3.org/2000/svg">
  <g stroke="#BE8A60" stroke-width="1" fill="none">
    <path d="M0,0 L1000,1000" />
    <path d="M100,0 L1000,900" />
    <path d="M200,0 L1000,800" />
    <path d="M300,0 L1000,700" />
    <path d="M400,0 L1000,600" />
    <path d="M500,0 L1000,500" />
    <path d="M600,0 L1000,400" />
    <path d="M700,0 L1000,300" />
    <path d="M800,0 L1000,200" />
    <path d="M900,0 L1000,100" />
    
    <path d="M0,100 L900,1000" />
    <path d="M0,200 L800,1000" />
    <path d="M0,300 L700,1000" />
    <path d="M0,400 L600,1000" />
    <path d="M0,500 L500,1000" />
    <path d="M0,600 L400,1000" />
    <path d="M0,700 L300,1000" />
    <path d="M0,800 L200,1000" />
    <path d="M0,900 L100,1000" />
  </g>
</svg>
