<?xml version="1.0" encoding="UTF-8"?>
<svg id="Camada_1" xmlns="http://www.w3.org/2000/svg" version="1.1" viewBox="0 0 386.2 102.7">
  <!-- Generator: Adobe Illustrator 29.1.0, SVG Export Plug-In . SVG Version: 2.1.0 Build 142)  -->
  <defs>
    <style>
      .st0 {
        fill: #e8e1d8;
      }
    </style>
  </defs>
  <path class="st0" d="M76.9,66.5L40.5,4.4,3.9,66.5h72.9ZM41.5,1.6l38.3,65.4,1,1.7H0l1-1.7L39.5,1.6l1-1.6,1,1.6h0Z"/>
  <polygon class="st0" points="41.5 42.4 41.5 102.7 39.3 102.7 39.3 42.4 41.5 42.4 41.5 42.4"/>
  <path class="st0" d="M127.4,27.6v19h-.2l-10.6-19h-4.3v21.3h2.5v-19h.2l10.6,19h4.3v-21.3h-2.5ZM147.3,41.2l4.1-11.3h.5l4.1,11.3h-8.8ZM159,49h2.6l-7.9-21.3h-3.9l-7.9,21.3h2.5l2-5.4h10.5l2,5.4h0ZM173.6,30h5.1v14.3c0,1.5-.9,2.4-2.3,2.4h-6.5v2.3h6.5c3,0,4.8-1.8,4.8-4.8v-16.5h-7.6v2.3h0ZM198,30h5.1v14.3c0,1.5-.9,2.4-2.3,2.4h-6.5v2.3h6.5c3,0,4.8-1.8,4.8-4.8v-16.5h-7.6v2.3h0ZM223.3,41.2l4.1-11.3h.5l4.1,11.3h-8.8ZM235,49h2.6l-7.9-21.3h-3.9l-7.9,21.3h2.5l2-5.4h10.5l2,5.4h0ZM264.4,49l-3.4-9.2c2.1-1.1,3.3-3.1,3.3-5.7,0-3.8-2.9-6.4-7-6.4h-7.7v21.3h2.5v-8.3h5.2c.4,0,.9,0,1.3,0l3.2,8.4h2.6ZM252.1,38.3v-8.3h5.4c2.5,0,4.3,1.6,4.3,4.2s-1.8,4.2-4.3,4.2h-5.4Z"/>
  <path class="st0" d="M122.3,86.6c4.4,0,8-2.6,9.4-6.8l-2.3-.8c-1.1,3.2-3.7,5.1-7.1,5.1-5,0-7.6-4.2-7.6-8.7s2.8-8.8,7.7-8.8,6,1.9,7.1,5.2l2.3-.8c-1.4-4.2-5-6.8-9.4-6.8s-10.1,5.1-10.1,11.2,3.8,11.2,10.1,11.2h0ZM148.2,78.4l4.1-11.3h.5l4.1,11.3h-8.8ZM159.9,86.1h2.6l-7.9-21.3h-3.9l-7.9,21.3h2.5l2-5.4h10.5l2,5.4h0ZM183.8,64.9h-8v21.2h2.5v-8.5h5.5c4.1,0,7-2.5,7-6.4s-2.9-6.4-7-6.4h0ZM184,75.3h-5.7v-8.2h5.7c2.5,0,4.3,1.6,4.3,4.2s-1.8,4-4.3,4h0ZM211.1,64.8h-6.5v21.3h6.5c6.4,0,10.8-4.4,10.8-10.7s-4.4-10.7-10.8-10.7h0ZM211.1,83.8h-4v-16.7h4c5.1,0,8.3,3.5,8.3,8.3s-3.3,8.3-8.3,8.3h0ZM238.4,67.1h11.9v-2.3h-14.4v21.3h14.4v-2.3h-11.9v-7.5h10.7v-2.3h-10.7v-6.9h0ZM280.3,64.8l-7.1,19h-.5l-7.1-19h-2.7l7.9,21.3h4.1l7.9-21.3h-2.7ZM296.7,64.8v21.3h2.6v-21.3h-2.6ZM317.6,83.7v-18.9h-2.6v21.3h13.8v-2.4h-11.3ZM347.4,83.7v-18.9h-2.6v21.3h13.8v-2.4h-11.3ZM374.3,67.1h11.9v-2.3h-14.4v21.3h14.4v-2.3h-11.9v-7.5h10.7v-2.3h-10.7v-6.9h0Z"/>
  <path class="st0" d="M292.7,41.7l-2.6-6.3h-1l-2.6,6.4h.9l.8-2h2.7l.8,2.1h.9ZM290.6,38.9h-2.1l.9-2.2c0-.1,0-.3.1-.5h0c0,.2,0,.3.1.5l.9,2.2h0ZM305,38.4c0-2-1.5-3.1-3.6-3.1s-1.5,0-1.8,0h-.6v6.4h.6c.3,0,1.3,0,1.9,0,2,0,3.5-1.2,3.5-3.4h0ZM304,38.5c0,1.5-1,2.5-2.6,2.5s-1.1,0-1.5,0v-4.8c.4,0,1,0,1.4,0,1.4,0,2.7.8,2.7,2.4h0ZM317.2,35.3h-1l-2,4.9c0,.1-.1.4-.1.5h0c0-.1,0-.4-.1-.5l-2-5h-1c0,0,2.6,6.4,2.6,6.4h1l2.7-6.4h0ZM329.9,38.4c0-2-1.6-3.2-3.3-3.2s-3.5,1.3-3.5,3.4,1.6,3.2,3.3,3.2,3.5-1.2,3.5-3.4h0ZM328.8,38.5c0,1.5-1,2.5-2.4,2.5s-2.4-.9-2.4-2.5,1.1-2.5,2.4-2.5,2.4.8,2.4,2.5h0ZM341.8,41.4l-.2-.9c-.6.3-1.3.5-2,.5-1.4,0-2.7-.8-2.7-2.4s1.1-2.6,2.6-2.6,1.5.2,2.1.4l.2-.9c-.7-.3-1.5-.4-2.3-.4-1.8,0-3.5,1.1-3.5,3.4s1.6,3.2,3.5,3.2,1.8-.2,2.3-.4h0ZM354.1,41.7l-2.6-6.3h-1l-2.6,6.4h.9l.8-2h2.7l.8,2.1h.9ZM352,38.9h-2.1l.9-2.2c0-.1,0-.3.1-.5h0c0,.2,0,.3.1.5l.9,2.2h0ZM365.7,41.4l-.2-.9c-.6.3-1.3.5-2,.5-1.4,0-2.7-.8-2.7-2.4s1.1-2.6,2.6-2.6,1.5.2,2.1.4l.2-.9c-.7-.3-1.5-.4-2.3-.4-1.8,0-3.5,1.1-3.5,3.4s1.6,3.2,3.5,3.2,1.8-.2,2.3-.4h0ZM373.7,41.7v-6.4h-1v6.4h1ZM386.2,41.7l-2.6-6.3h-1l-2.6,6.4h.9l.8-2h2.7l.8,2.1h.9ZM384.1,38.9h-2.1l.9-2.2c0-.1,0-.3.1-.5h0c0,.2,0,.3.1.5l.9,2.2h0Z"/>
</svg>